<svg width="626" height="284" viewBox="0 0 626 284" fill="none" xmlns="http://www.w3.org/2000/svg">
<path fill-rule="evenodd" clip-rule="evenodd" d="M320.884 7.651L312.876 15.301L305.502 8.151C297.017 -0.0769987 294.513 -0.753026 289.837 3.92297C288.229 5.53097 286.914 7.58704 286.914 8.49304C286.914 10.839 292.037 17.9751 296.829 22.3051C299.076 24.3341 300.899 26.7829 300.881 27.7469C300.862 28.7109 298.784 31.75 296.262 34.5C291.16 40.063 287.923 44.833 287.918 46.795C287.911 48.987 292.683 53 295.295 53C297.057 53 299.856 50.847 305.045 45.5C309.049 41.375 312.764 38 313.301 38C313.838 38 317.234 41.15 320.847 45C326.237 50.742 327.973 52 330.51 52C334.578 52 337.114 49.096 337.114 44.439C337.114 41.27 336.262 39.896 331.014 34.601C327.659 31.216 324.914 27.638 324.914 26.651C324.914 25.664 327.051 22.599 329.664 19.842C336.558 12.565 338.21 9.62195 337.419 6.02295C336.708 2.78595 333.591 0 330.681 0C329.697 0 325.289 3.443 320.884 7.651ZM225.414 51.395C214.606 54.752 212.628 56.588 212.628 63.264C212.628 70.24 214.051 72.79 218.165 73.187L221.414 73.5L222.581 86.5C223.223 93.65 224.237 104.45 224.835 110.5C225.432 116.55 226.34 125.775 226.852 131C228.826 151.14 230.01 161.723 230.937 167.5C231.466 170.8 231.902 175.797 231.906 178.604C231.917 185.79 234.931 189.01 241.616 188.976C248.573 188.94 254.477 187.365 262.414 183.426C278.695 175.346 287.74 162.058 294.013 137C296.09 128.702 296.506 112.589 294.838 105C294.294 102.525 293.579 98.5771 293.249 96.2271C292.919 93.8771 292.258 91.713 291.781 91.418C291.304 91.123 290.914 89.9611 290.914 88.8361C290.914 87.0261 289.793 84.506 284.198 73.751C283.412 72.239 280.572 68.599 277.888 65.662C272.393 59.65 261.03 53.267 253.196 51.792C245.092 50.267 229.752 50.047 225.414 51.395ZM457.914 55.735C454.899 56.894 449.759 61.399 448.355 64.114C444.771 71.045 448.142 81.942 454.723 84.696C458.143 86.128 458.666 86.104 461.849 84.371C465.949 82.138 470.914 73.2469 470.914 68.1379C470.914 63.8779 467.611 58.412 463.867 56.476C460.824 54.902 460.261 54.832 457.914 55.735ZM174.926 67.802C168.428 70.979 168.165 73.84 171.575 104.256C172.099 108.931 172.055 109.022 168.99 109.635C167.275 109.978 165.63 110.65 165.334 111.129C165.038 111.608 163.955 112 162.928 112C161.9 112 160.143 113.164 159.024 114.588C157.339 116.729 156.464 117.06 153.951 116.508C147.005 114.983 140.267 119.507 135.828 128.677L133.585 133.312L131.749 131.045C130.74 129.798 129.914 128.262 129.914 127.63C129.914 126.998 129.042 125.937 127.977 125.271C125.054 123.446 118.883 125.896 116.61 129.784C114.849 132.795 114.865 133.091 117.247 142.184C119.66 151.391 123.473 164.478 128.557 181C129.995 185.675 131.554 190.85 132.021 192.5C133.526 197.817 137.145 208.45 138.036 210.172C140.876 215.661 146.825 216.665 151.397 212.428C153.987 210.028 154.129 209.486 153.521 204.314C153.163 201.266 151.737 195.111 150.352 190.636C148.968 186.161 147.351 180.7 146.759 178.5C146.167 176.3 145.172 173.15 144.548 171.5C143.004 167.416 143.139 153.477 144.775 147.984C147.558 138.638 150.239 135.766 154.2 137.885C158.422 140.145 161.218 139.001 162.475 134.5C163.657 130.268 165.316 129.388 172.619 129.118C175.583 129.009 175.866 129.282 176.391 132.75C177.399 139.406 178.815 149.303 179.933 157.5C180.943 164.913 182.389 171.502 185.196 181.5C188.046 191.647 194.299 197 203.302 197C209.512 197 215.507 194.078 218.421 189.63C220.899 185.848 221.506 177.553 219.527 174.531C217.318 171.161 215.951 171.335 211.914 175.5C204.946 182.689 201.699 179.697 198.891 163.5C195.351 143.084 194.008 134.712 193.432 129.472L192.769 123.445L198.897 122.085C207.285 120.224 211.323 117.379 211.741 113.035C212.249 107.747 211.029 103.132 208.806 101.942C207.295 101.133 204.778 101.294 198.831 102.579C194.457 103.524 190.635 104.054 190.338 103.758C190.042 103.461 189.166 98.782 188.393 93.359C185.519 73.196 184.728 69.999 182.107 67.937C179.184 65.638 179.345 65.641 174.926 67.802ZM240.677 72.175C240.374 72.965 240.537 77.4111 241.038 82.0551C241.91 90.1341 243.118 104.701 244.89 128.5C246.285 147.254 247.968 164.278 248.512 165.158C249.594 166.909 253.86 165.885 258.551 162.75C266.743 157.275 273.212 145.468 276.562 129.875C278.094 122.749 278.151 120.528 277.06 110.716C276.381 104.611 275.125 98.016 274.268 96.058C273.411 94.101 272.212 91.375 271.602 90C269.236 84.659 263.666 78.05 259.019 75.067C253.287 71.389 241.681 69.559 240.677 72.175ZM51.9732 86.161C43.0982 92.195 40.0471 109.975 41.8761 145C42.4641 156.275 43.3681 169.1 43.8841 173.5C44.4001 177.9 45.0841 184.257 45.4041 187.627L45.9862 193.754L41.8883 197.127C34.4703 203.233 31.8441 210.68 35.4351 215.426C36.8661 217.318 36.9792 217.311 41.8282 215.04C44.5432 213.769 47.4072 212.975 48.1942 213.277C48.9812 213.579 49.954 215.553 50.356 217.663C54.655 240.192 57.715 252.246 59.617 254.148C60.671 255.202 63.1731 256.33 65.1771 256.655C68.3141 257.164 69.2452 256.823 71.8682 254.2C75.9272 250.14 75.8761 246.079 71.5111 226.086C66.4421 202.862 66.5581 204.235 69.4351 201.568C70.8071 200.296 77.133 196.658 83.491 193.483C96.875 186.8 96.0182 186.575 100.736 198C109.253 218.622 113.209 226.516 115.459 227.379C119.457 228.913 124.077 227.991 126.991 225.077C130.522 221.546 130.538 221.166 127.534 212.425C125.137 205.454 124.203 203.083 120.748 195.21C119.713 192.85 117.108 186.508 114.96 181.117C112.812 175.725 109.401 167.756 107.38 163.407C105.358 159.058 102.574 153.025 101.193 150C99.8112 146.975 97.6502 142.25 96.3902 139.5C95.1302 136.75 93.1211 132.25 91.9271 129.5C89.3721 123.62 78.2761 101.467 74.6461 95C69.1051 85.126 59.1842 81.259 51.9732 86.161ZM328.414 88.328C316.481 93.007 309.167 102.202 304.47 118.431C303.22 122.749 302.753 128.084 302.753 138.04C302.753 156.957 304.963 164.103 313.146 171.646C319.407 177.418 325.17 179.377 334.154 178.789C340.058 178.403 342.37 177.723 346.536 175.15C352.447 171.498 356.914 165.398 356.914 160.976C356.914 157.788 353.173 153 350.682 153C349.35 153 345.466 155.392 343.182 157.619C340.952 159.795 333.089 162.261 330.476 161.605C324.174 160.023 318.126 150.597 319.082 143.846C319.394 141.64 319.953 141.461 328.414 140.853C344.184 139.719 352.481 136.329 357.027 129.16C359.576 125.142 359.914 123.692 359.914 116.782C359.914 103.682 354.006 93.2821 344.081 88.9091C339.252 86.7811 332.955 86.548 328.414 88.328ZM393.414 92.7159C384.332 96.3789 378.396 102.252 373.417 112.5C368.856 121.891 366.856 129.68 366.202 140.602C364.626 166.93 375.128 182.424 394.538 182.404C400.541 182.398 410.766 177.852 415.211 173.212C418.754 169.514 419.766 163.949 417.519 160.519C415.289 157.117 412.499 157.36 405.96 161.526C397.4 166.979 390.701 166.165 385.439 159.034C383.434 156.317 382.914 154.436 382.914 149.909V144.206L395.164 143.833C405.801 143.51 408.152 143.117 413.021 140.851C424.317 135.594 428.657 123.601 424.424 109.345C420.173 95.032 406.222 87.5509 393.414 92.7159ZM446.213 102.25C444.678 103.935 443.115 109.771 439.985 125.5C433.539 157.892 427.911 181.119 423.66 192.88C421.466 198.949 419.476 202.466 416.444 205.63C412.376 209.875 412.079 210 406.02 210C402.589 210 398.912 210.466 397.848 211.035C392.856 213.707 398.452 222.771 406.482 225.019C414.542 227.276 423.796 223.846 430.653 216.059C433.822 212.462 438.681 203.055 440.875 196.272C445.094 183.226 453.611 146.664 457.914 123.127C460.895 106.815 460.718 103.036 456.875 100.979C453.582 99.217 448.415 99.833 446.213 102.25ZM329.489 107.068C325.826 110.285 320.914 119.393 320.914 122.969C320.914 125.997 323.347 126.504 331.311 125.139C339.142 123.796 342.468 121.5 343.749 116.555C344.824 112.409 344.136 109.531 341.35 106.525C338.089 103.006 333.897 103.198 329.489 107.068ZM398.414 108.489C394.423 110.253 391.603 113.422 388.489 119.645C384.108 128.399 384.822 129.211 396.107 128.31C404.76 127.62 406.39 126.907 408.964 122.686C411.859 117.938 411.423 115.274 407.032 110.882C402.756 106.607 402.705 106.593 398.414 108.489ZM485.805 109.884C474.881 115.347 470.895 122.815 476.228 127.826C479.253 130.667 482.052 130.569 488.541 127.394C493.171 125.129 494.29 124.935 497.098 125.914C502.557 127.817 504.914 130.771 504.914 135.706C504.914 138.103 504.24 141.678 503.416 143.649C501.799 147.519 502.112 147.492 493.914 144.478C480.501 139.547 466.446 145.814 459.831 159.673C450.595 179.025 462.074 199.28 479.859 195.013C482.643 194.345 485.17 193.394 485.476 192.9C485.782 192.405 487.13 192 488.473 192C490.59 192 490.914 192.459 490.914 195.455C490.914 197.823 491.715 199.71 493.459 201.455C499.818 207.813 509.517 200.988 508.203 191.078C507.871 188.575 509.147 182.992 512.447 172.5C520.668 146.365 521.075 144.464 520.701 133.969C520.407 125.735 519.987 123.801 517.615 119.753C514.583 114.58 510.286 111.029 504.843 109.2C499.556 107.423 490.042 107.766 485.805 109.884ZM595.467 114.116C588.359 121.794 588.224 124.381 594.914 124.745C599.884 125.016 600.743 124.507 606.175 118.07C610.335 113.141 610.745 111.351 608.164 109.392C604.446 106.57 601.406 107.701 595.467 114.116ZM60.2291 117.622C59.2701 120.119 60.6881 163.456 62.0321 172.75C62.8981 178.733 63.6232 181 64.6732 181C66.2102 181 85.7931 171.471 87.3101 169.985C88.1491 169.164 87.2102 166.5 81.6722 154C80.5762 151.525 78.7852 147.475 77.6932 145C71.9012 131.88 63.4312 116 62.2252 116C61.4702 116 60.5711 116.73 60.2291 117.622ZM540.706 125.526C536.834 127.662 533.961 134.636 528.563 155C524.147 171.658 522.916 179.245 522.915 189.79C522.914 204.302 525.788 209.529 535.164 212.063C537.502 212.696 538.914 213.676 538.914 214.669C538.914 218.475 520.467 241.006 514.476 244.516C508.872 247.801 505.742 247.666 501.519 243.958C497.362 240.308 496.54 237.227 497.863 230.26C499.088 223.81 498.565 222.302 494.815 221.478C487.902 219.96 480.914 228.613 480.914 238.692C480.914 249.455 487.677 259.271 497.669 263.01C510.179 267.69 522.503 263.728 535.04 250.995C541.526 244.407 553.673 226.932 559.365 216C560.94 212.975 563.072 209.287 564.101 207.804C566.573 204.244 593.914 149.865 593.914 148.508C593.914 147.929 592.531 145.778 590.841 143.728C588.262 140.599 587.148 140 583.909 140C580.791 140 579.653 140.558 577.982 142.904C576.845 144.502 575.914 146.064 575.914 146.376C575.914 146.687 573.889 150.368 571.414 154.554C568.939 158.74 566.914 162.316 566.914 162.5C566.914 162.684 564.889 166.26 562.414 170.446C559.939 174.632 557.914 178.498 557.914 179.035C557.914 179.573 555.175 182.71 551.827 186.007C542.214 195.471 538.347 193.989 539.927 181.445C541.036 172.645 542.669 166.424 548.258 149.698C554.139 132.098 554.457 129.044 550.664 126.591C547.096 124.283 543.632 123.913 540.706 125.526ZM480.371 159.863C476.575 162.178 474.259 165.644 473.381 170.325C472.789 173.481 473.089 174.329 475.731 176.971C479.483 180.723 481.33 180.757 486.968 177.178C490.108 175.185 492.222 172.758 494.164 168.914C497.701 161.915 497.627 160.66 493.593 159.201C488.826 157.477 483.877 157.725 480.371 159.863ZM3.94905 161.934C2.07305 165.44 2.67914 169.947 5.16414 170.966C11.0321 173.372 20.9192 175.068 22.8992 174.008C27.8352 171.367 23.6382 164.185 15.6292 161.565C9.08523 159.425 5.22705 159.547 3.94905 161.934ZM613.224 162.024C607.455 163.196 603.914 165.702 603.914 168.615C603.914 170.882 604.223 170.996 610.164 170.923C621.335 170.786 627.934 167.442 625.308 163.25C624.045 161.235 619.422 160.766 613.224 162.024ZM595.585 190.06C594.45 191.679 594.283 192.821 594.987 194.137C596.666 197.274 614.493 204.506 618.886 203.833C620.08 203.65 621.802 202.265 622.714 200.756C624.287 198.15 624.267 197.909 622.329 195.971C619.982 193.624 608.584 189.468 601.787 188.482C597.711 187.89 596.973 188.078 595.585 190.06ZM7.01204 194.865C0.643041 196.833 -0.923975 198.71 0.471025 202.697C1.14802 204.633 2.24519 205.593 4.01619 205.8C7.17919 206.171 21.7132 199.688 22.5372 197.539C24.2652 193.038 16.984 191.784 7.01204 194.865ZM312.914 212.75C310.349 213.571 308.914 216.228 308.914 220.156C308.914 224.348 311.46 226.596 314.953 225.488C317.691 224.619 318.715 222.141 318.162 217.725C317.678 213.858 315.602 211.89 312.914 212.75ZM582.529 215.465C581.641 216.82 580.914 218.568 580.914 219.348C580.914 220.128 584.194 224.221 588.203 228.443L595.492 236.12L598.203 233.987C601.65 231.276 601.847 226.555 598.663 222.965C595.09 218.938 587.352 213 585.676 213C584.833 213 583.417 214.109 582.529 215.465ZM366.28 216.919C361.87 219.608 357.914 225.149 357.914 228.636C357.914 230.897 356.45 233.099 351.632 238.086C340.972 249.12 326.557 258.232 311.079 263.72C303.935 266.253 302.292 266.439 286.914 266.458C271.421 266.477 269.903 266.306 262.046 263.654C252.583 260.459 247.075 257.62 238.414 251.474C230.002 245.505 227.639 242.675 226.98 237.778C226.529 234.432 225.722 233.111 223.016 231.288C218.406 228.183 214.803 228.367 211.02 231.901C205.578 236.985 206.969 242.812 216.308 254.063C226.203 265.983 238.987 274.379 256.019 280.144C264.635 283.061 266.729 283.361 281.28 283.769C298.397 284.25 304.323 283.508 316.914 279.307C337.742 272.359 354.598 260.055 371.45 239.5C374.156 236.2 376.604 233.275 376.892 233C378.387 231.568 380.914 225.912 380.914 223.996C380.914 221.063 374.744 214.999 371.764 215.004C370.471 215.006 368.004 215.867 366.28 216.919ZM24.2782 219.919C18.1402 224.474 13.9141 228.759 13.9141 230.428C13.9141 231.275 15.172 233.376 16.71 235.097L19.5052 238.226L25.0811 233.13C33.0821 225.818 34.811 220.621 30.085 218.091C28.526 217.257 27.3792 217.619 24.2782 219.919ZM268.665 218.945C266.511 222.02 267.643 227.919 270.65 229.289C272.816 230.276 273.4 230.118 275.031 228.103C277.558 224.984 277.407 221.232 274.664 218.944C271.775 216.533 270.354 216.534 268.665 218.945Z" fill="black"/>
</svg>
